# xmcd
# 
# Track frame offsets:
#     150
#     10051
#     41216
#     74155
#     105779
#     133777
#     156767
# 
# Disc length: 2449
# 
# Revision: 0
# Processed by: cddbd v1.5.2PL0 Copyright (c) Steve Scherf et al.
# Submitted via: fre:ac v1.0.17
# 
DISCID=59098f07
DTITLE=Stefanie Dahle - Erdberinchen Erdbeerfee - Das große ErdBÄRfest
DYEAR=2014
DGENRE=
TTITLE0=Intro, Ansage, Erdbeerinchens Lied
TTITLE1=Erdbeerinchen kümmert sich
TTITLE2=Zetti hat Streit
TTITLE3=Das Schlaflied
TTITLE4=Ein Gespenst im Erdbeergarten
TTITLE5=Der wunderschönste Schnupper
TTITLE6=Großes Erdbärfest
EXTD=
EXTT0=
EXTT1=
EXTT2=
EXTT3=
EXTT4=
EXTT5=
EXTT6=
PLAYORDER=
